<svg width="21" height="21" viewBox="0 0 21 21" fill="none" xmlns="http://www.w3.org/2000/svg">
<path d="M19.71 13.5799L15.19 9.06988C15.2846 8.60926 15.3315 8.14012 15.33 7.66988C15.3297 6.38054 15.0043 5.11208 14.3839 3.98177C13.7636 2.85145 12.8683 1.89576 11.7809 1.20303C10.6935 0.51029 9.44893 0.102869 8.16235 0.0184232C6.87577 -0.066023 5.58866 0.17523 4.42 0.719883C4.27194 0.787521 4.14262 0.890282 4.04329 1.01924C3.94396 1.1482 3.8776 1.29946 3.85 1.45988C3.8225 1.61827 3.83359 1.78095 3.88233 1.93414C3.93108 2.08733 4.01603 2.22651 4.13 2.33988L8.48 6.67988L6.68 8.47988L2.34 4.12988C2.22567 4.01769 2.08605 3.9346 1.93291 3.88761C1.77977 3.84062 1.61758 3.83112 1.46 3.85988C1.30058 3.88648 1.14998 3.95132 1.02111 4.04885C0.892228 4.14638 0.788909 4.27369 0.719999 4.41988C0.173524 5.59239 -0.0675196 6.88406 0.0192908 8.17475C0.106101 9.46543 0.517945 10.7132 1.21651 11.802C1.91508 12.8907 2.87767 13.7851 4.01474 14.4019C5.15181 15.0188 6.42642 15.338 7.72 15.3299C8.19023 15.3314 8.65937 15.2845 9.12 15.1899L13.63 19.7099C13.723 19.8036 13.8336 19.878 13.9554 19.9288C14.0773 19.9795 14.208 20.0057 14.34 20.0057C14.472 20.0057 14.6027 19.9795 14.7246 19.9288C14.8464 19.878 14.957 19.8036 15.05 19.7099C15.1437 19.6169 15.2181 19.5063 15.2689 19.3845C15.3197 19.2626 15.3458 19.1319 15.3458 18.9999C15.3458 18.8679 15.3197 18.7372 15.2689 18.6153C15.2181 18.4934 15.1437 18.3828 15.05 18.2899L10.15 13.3899C10.0275 13.2682 9.8757 13.1804 9.70923 13.1348C9.54276 13.0893 9.36732 13.0876 9.2 13.1299C8.71717 13.2592 8.21983 13.3264 7.72 13.3299C6.97205 13.3365 6.23018 13.195 5.53714 12.9137C4.8441 12.6323 4.21357 12.2166 3.68189 11.6905C3.15021 11.1644 2.72787 10.5383 2.43922 9.84823C2.15056 9.1582 2.00129 8.41786 2 7.66988C1.9987 7.3349 2.02546 7.0004 2.08 6.66988L6 10.5999C6.09296 10.6936 6.20356 10.768 6.32542 10.8188C6.44728 10.8695 6.57799 10.8957 6.71 10.8957C6.84201 10.8957 6.97272 10.8695 7.09458 10.8188C7.21643 10.768 7.32704 10.6936 7.42 10.5999L10.6 7.38988C10.7802 7.20342 10.881 6.95422 10.881 6.69488C10.881 6.43554 10.7802 6.18635 10.6 5.99988L6.71 2.07988C7.04058 2.0259 7.37504 1.99914 7.71 1.99988C9.21204 2.00253 10.6517 2.60108 11.7128 3.66412C12.774 4.72716 13.37 6.16784 13.37 7.66988C13.3665 8.16971 13.2993 8.66706 13.17 9.14988C13.1277 9.31721 13.1294 9.49264 13.1749 9.65911C13.2205 9.82559 13.3084 9.97743 13.43 10.0999L18.33 14.9999C18.5183 15.1882 18.7737 15.294 19.04 15.294C19.3063 15.294 19.5617 15.1882 19.75 14.9999C19.9383 14.8116 20.0441 14.5562 20.0441 14.2899C20.0441 14.0236 19.9383 13.7682 19.75 13.5799H19.71Z" fill="#131A58"/>
</svg>
