<svg width="20" height="20" viewBox="0 0 20 20" fill="none" xmlns="http://www.w3.org/2000/svg">
<path d="M19.21 8.29L17.48 6.57C17.8991 5.89021 18.1239 5.10857 18.13 4.31C18.128 3.45842 17.8738 2.62651 17.3995 1.91926C16.9251 1.21202 16.2519 0.661151 15.4648 0.336178C14.6776 0.0112045 13.8118 -0.0733048 12.9767 0.0933161C12.1416 0.259937 11.3745 0.67022 10.7724 1.27238C10.1702 1.87454 9.75994 2.64159 9.59332 3.47672C9.42669 4.31184 9.5112 5.17761 9.83618 5.96475C10.1612 6.75189 10.712 7.42512 11.4193 7.89947C12.1265 8.37382 12.9584 8.62802 13.81 8.63C14.6068 8.63095 15.3886 8.41303 16.07 8L17.79 9.73C17.883 9.82373 17.9936 9.89812 18.1154 9.94889C18.2373 9.99966 18.368 10.0258 18.5 10.0258C18.632 10.0258 18.7627 9.99966 18.8846 9.94889C19.0064 9.89812 19.117 9.82373 19.21 9.73C19.3068 9.63672 19.3838 9.52488 19.4363 9.40117C19.4889 9.27746 19.516 9.14442 19.516 9.01C19.516 8.87558 19.4889 8.74254 19.4363 8.61883C19.3838 8.49512 19.3068 8.38328 19.21 8.29ZM15.45 6C15.122 6.32395 14.705 6.54285 14.2521 6.62877C13.7991 6.71469 13.3309 6.66373 12.9071 6.4824C12.4832 6.30106 12.123 5.99757 11.8724 5.61065C11.6218 5.22373 11.4922 4.77092 11.5 4.31C11.4998 4.00682 11.5598 3.70662 11.6765 3.42681C11.7933 3.147 11.9644 2.89315 12.18 2.68C12.6146 2.24826 13.2024 2.00596 13.815 2.00596C14.4276 2.00596 15.0154 2.24826 15.45 2.68C15.665 2.89456 15.8355 3.14941 15.9519 3.42997C16.0683 3.71052 16.1282 4.01127 16.1282 4.315C16.1282 4.61873 16.0683 4.91948 15.9519 5.20003C15.8355 5.48059 15.665 5.73544 15.45 5.95V6ZM17.5 12C17.3726 11.9669 17.24 11.9593 17.1096 11.9777C16.9793 11.996 16.8539 12.0398 16.7405 12.1067C16.6272 12.1736 16.5282 12.2622 16.4491 12.3675C16.3701 12.4727 16.3126 12.5925 16.28 12.72C15.8976 14.2285 15.0234 15.5666 13.7956 16.5228C12.5677 17.479 11.0563 17.9988 9.5 18H3.91L4.55 17.37C4.73625 17.1826 4.84079 16.9292 4.84079 16.665C4.84079 16.4008 4.73625 16.1474 4.55 15.96C3.90304 15.2999 3.39321 14.5182 3.04994 13.66C2.70667 12.8018 2.53676 11.8842 2.55 10.96C2.55526 9.5803 2.96812 8.23292 3.73673 7.08712C4.50534 5.94133 5.59541 5.04822 6.87 4.52C7.11665 4.42187 7.31422 4.22978 7.41924 3.98598C7.52426 3.74218 7.52813 3.46665 7.43 3.22C7.33187 2.97335 7.13978 2.77578 6.89598 2.67076C6.65218 2.56574 6.37665 2.56187 6.13 2.66C4.82385 3.18357 3.65867 4.00611 2.72802 5.06159C1.79737 6.11707 1.12718 7.37607 0.771265 8.73749C0.41535 10.0989 0.383629 11.5248 0.678648 12.9007C0.973668 14.2766 1.58721 15.5642 2.47 16.66L0.79 18.29C0.651242 18.4306 0.557246 18.6092 0.519872 18.8032C0.482498 18.9972 0.50342 19.1979 0.58 19.38C0.65502 19.5626 0.782418 19.7189 0.946138 19.8293C1.10986 19.9396 1.30257 19.999 1.5 20H9.5C11.4963 20.0013 13.4363 19.3388 15.0149 18.1169C16.5934 16.895 17.7209 15.1829 18.22 13.25C18.2576 13.1206 18.2687 12.985 18.2526 12.8512C18.2365 12.7175 18.1936 12.5883 18.1263 12.4716C18.0591 12.3549 17.9689 12.2529 17.8613 12.1719C17.7537 12.0908 17.6308 12.0324 17.5 12Z" fill="#131A58"/>
</svg>
