<svg width="28" height="28" viewBox="0 0 28 28" fill="none" xmlns="http://www.w3.org/2000/svg">
<g clip-path="url(#clip0_1_146)">
<path d="M2.91665 0H25.0833C26.6942 0 28 1.30583 28 2.91665V25.0833C28 26.6942 26.6942 28 25.0834 28H2.91665C1.30583 28 0 26.6942 0 25.0834V2.91665C0 1.30583 1.30583 0 2.91665 0Z" fill="white"/>
<path d="M21.5834 8.16665H23.9167C24.2389 8.16665 24.5001 7.90546 24.5001 7.5833V4.0833C24.5 3.76119 24.2388 3.5 23.9167 3.5H21.5833C18.0395 3.5 15.1667 6.37284 15.1667 9.91665V12.8333H12.25C11.9279 12.8333 11.6667 13.0945 11.6667 13.4166V16.9166C11.6667 17.2388 11.9279 17.5 12.25 17.5H15.1667V28H19.8333V17.5H22.75C23.001 17.4998 23.2237 17.3391 23.303 17.101L24.4697 13.601C24.5715 13.2954 24.4062 12.965 24.1006 12.8632C24.0413 12.8435 23.9792 12.8334 23.9167 12.8333H19.8333V9.91665C19.8334 8.95016 20.6169 8.16665 21.5834 8.16665Z" fill="#131A58"/>
</g>
<defs>
<clipPath id="clip0_1_146">
<rect width="28" height="28" fill="white"/>
</clipPath>
</defs>
</svg>
