<svg width="20" height="22" viewBox="0 0 20 22" fill="none" xmlns="http://www.w3.org/2000/svg">
<path d="M10 21C10 21 2 16.5 2 9.2C1.97331 8.13272 2.16052 7.07088 2.55059 6.07708C2.94066 5.08327 3.5257 4.17759 4.27124 3.41341C5.01679 2.64923 5.90775 2.042 6.89162 1.62752C7.8755 1.21303 8.93238 0.999667 10 1C11.0676 0.999667 12.1245 1.21303 13.1084 1.62752C14.0923 2.042 14.9832 2.64923 15.7288 3.41341C16.4743 4.17759 17.0593 5.08327 17.4494 6.07708C17.8395 7.07088 18.0267 8.13272 18 9.2C18 16.5 10 21 10 21Z" stroke="#596573" stroke-width="2" stroke-linecap="round" stroke-linejoin="round"/>
</svg>
