<svg width="28" height="28" viewBox="0 0 28 28" fill="none" xmlns="http://www.w3.org/2000/svg">
<g clip-path="url(#clip0_1_143)">
<path d="M27.1938 16.9713C29.2215 7.85962 21.2392 -0.417881 11.865 1.17112C6.77599 -1.98705 -7.62939e-06 1.58179 -7.62939e-06 7.63679C-7.62939e-06 9.04495 0.388492 10.3633 1.06399 11.4996C-0.820174 20.6323 7.22749 28.7908 16.5935 27.0933C23.2143 30.5945 30.5305 23.612 27.1938 16.9713ZM18.2828 22.4663C15.8235 23.4778 11.7763 23.4836 9.32749 22.2015C5.83566 20.3395 5.21499 16.1476 8.22733 16.1476C10.4977 16.1476 9.77899 18.7948 12.0715 19.874C13.1238 20.3605 15.386 20.4106 16.7008 19.524C17.9993 18.6548 17.8803 17.2875 17.1745 16.6341C15.3043 14.9075 9.95283 15.5935 7.50633 12.5706C6.44349 11.2593 6.24283 8.94579 7.54949 7.26812C9.82683 4.33745 16.5095 4.15895 19.383 6.37212C22.036 8.42545 21.3197 11.1508 19.1788 11.1508C16.604 11.1508 17.9573 7.78145 13.8005 7.78145C10.787 7.78145 9.60166 9.92462 11.7238 10.9676C14.6008 12.3968 21.9322 11.9196 21.9322 17.5045C21.9263 19.8285 20.5018 21.561 18.2828 22.4663Z" fill="white"/>
</g>
<defs>
<clipPath id="clip0_1_143">
<rect width="28" height="28" fill="white"/>
</clipPath>
</defs>
</svg>
