<svg width="96" height="16" viewBox="0 0 96 16" fill="none" xmlns="http://www.w3.org/2000/svg">
<g clip-path="url(#clip0_1_216)">
<path d="M15.9581 6.13706C15.8528 5.81308 15.5654 5.58371 15.2268 5.55307L10.6081 5.13375L8.78272 0.860238C8.64795 0.546268 8.3413 0.343628 7.99999 0.343628C7.65868 0.343628 7.35191 0.546268 7.218 0.860238L5.39265 5.13375L0.773185 5.55307C0.434557 5.58432 0.147809 5.81369 0.04185 6.13706C-0.0634985 6.46104 0.0337932 6.81639 0.289901 7.04101L3.78129 10.1025L2.75186 14.6365C2.67654 14.9698 2.80593 15.3146 3.08255 15.5145C3.23123 15.6226 3.40592 15.6765 3.58122 15.6765C3.73185 15.6765 3.88261 15.6365 4.01726 15.5559L7.99999 13.1745L11.982 15.5559C12.2741 15.7305 12.6414 15.7145 12.9174 15.5145C13.194 15.3146 13.3234 14.9698 13.2481 14.6365L12.2187 10.1025L15.7101 7.04101C15.9661 6.81639 16.0635 6.46177 15.9581 6.13706Z" fill="#FFCE1F"/>
</g>
<g clip-path="url(#clip1_1_216)">
<path d="M35.9581 6.13706C35.8528 5.81308 35.5654 5.58371 35.2268 5.55307L30.6081 5.13375L28.7827 0.860238C28.648 0.546268 28.3413 0.343628 28 0.343628C27.6587 0.343628 27.3519 0.546268 27.218 0.860238L25.3926 5.13375L20.7732 5.55307C20.4346 5.58432 20.1478 5.81369 20.0418 6.13706C19.9365 6.46104 20.0338 6.81639 20.2899 7.04101L23.7813 10.1025L22.7519 14.6365C22.6765 14.9698 22.8059 15.3146 23.0826 15.5145C23.2312 15.6226 23.4059 15.6765 23.5812 15.6765C23.7319 15.6765 23.8826 15.6365 24.0173 15.5559L28 13.1745L31.982 15.5559C32.2741 15.7305 32.6414 15.7145 32.9174 15.5145C33.194 15.3146 33.3234 14.9698 33.2481 14.6365L32.2187 10.1025L35.7101 7.04101C35.9661 6.81639 36.0635 6.46177 35.9581 6.13706Z" fill="#FFCE1F"/>
</g>
<g clip-path="url(#clip2_1_216)">
<path d="M55.9581 6.13706C55.8528 5.81308 55.5654 5.58371 55.2268 5.55307L50.6081 5.13375L48.7827 0.860238C48.648 0.546268 48.3413 0.343628 48 0.343628C47.6587 0.343628 47.3519 0.546268 47.218 0.860238L45.3926 5.13375L40.7732 5.55307C40.4346 5.58432 40.1478 5.81369 40.0418 6.13706C39.9365 6.46104 40.0338 6.81639 40.2899 7.04101L43.7813 10.1025L42.7519 14.6365C42.6765 14.9698 42.8059 15.3146 43.0826 15.5145C43.2312 15.6226 43.4059 15.6765 43.5812 15.6765C43.7319 15.6765 43.8826 15.6365 44.0173 15.5559L48 13.1745L51.982 15.5559C52.2741 15.7305 52.6414 15.7145 52.9174 15.5145C53.194 15.3146 53.3234 14.9698 53.2481 14.6365L52.2187 10.1025L55.7101 7.04101C55.9661 6.81639 56.0635 6.46177 55.9581 6.13706Z" fill="#FFCE1F"/>
</g>
<g clip-path="url(#clip3_1_216)">
<path d="M75.9581 6.13706C75.8528 5.81308 75.5654 5.58371 75.2268 5.55307L70.6081 5.13375L68.7827 0.860238C68.648 0.546268 68.3413 0.343628 68 0.343628C67.6587 0.343628 67.3519 0.546268 67.218 0.860238L65.3926 5.13375L60.7732 5.55307C60.4346 5.58432 60.1478 5.81369 60.0418 6.13706C59.9365 6.46104 60.0338 6.81639 60.2899 7.04101L63.7813 10.1025L62.7519 14.6365C62.6765 14.9698 62.8059 15.3146 63.0826 15.5145C63.2312 15.6226 63.4059 15.6765 63.5812 15.6765C63.7319 15.6765 63.8826 15.6365 64.0173 15.5559L68 13.1745L71.982 15.5559C72.2741 15.7305 72.6414 15.7145 72.9174 15.5145C73.194 15.3146 73.3234 14.9698 73.2481 14.6365L72.2187 10.1025L75.7101 7.04101C75.9661 6.81639 76.0635 6.46177 75.9581 6.13706Z" fill="#FFCE1F"/>
</g>
<g clip-path="url(#clip4_1_216)">
<path d="M95.9581 6.13706C95.8528 5.81308 95.5654 5.58371 95.2268 5.55307L90.6081 5.13375L88.7827 0.860238C88.648 0.546268 88.3413 0.343628 88 0.343628C87.6587 0.343628 87.3519 0.546268 87.218 0.860238L85.3926 5.13375L80.7732 5.55307C80.4346 5.58432 80.1478 5.81369 80.0418 6.13706C79.9365 6.46104 80.0338 6.81639 80.2899 7.04101L83.7813 10.1025L82.7519 14.6365C82.6765 14.9698 82.8059 15.3146 83.0826 15.5145C83.2312 15.6226 83.4059 15.6765 83.5812 15.6765C83.7319 15.6765 83.8826 15.6365 84.0173 15.5559L88 13.1745L91.982 15.5559C92.2741 15.7305 92.6414 15.7145 92.9174 15.5145C93.194 15.3146 93.3234 14.9698 93.2481 14.6365L92.2187 10.1025L95.7101 7.04101C95.9661 6.81639 96.0635 6.46177 95.9581 6.13706Z" fill="#FFCE1F"/>
</g>
<defs>
<clipPath id="clip0_1_216">
<rect width="16" height="16" fill="white"/>
</clipPath>
<clipPath id="clip1_1_216">
<rect width="16" height="16" fill="white" transform="translate(20)"/>
</clipPath>
<clipPath id="clip2_1_216">
<rect width="16" height="16" fill="white" transform="translate(40)"/>
</clipPath>
<clipPath id="clip3_1_216">
<rect width="16" height="16" fill="white" transform="translate(60)"/>
</clipPath>
<clipPath id="clip4_1_216">
<rect width="16" height="16" fill="white" transform="translate(80)"/>
</clipPath>
</defs>
</svg>
